<?xml version="1.0" standalone="no"?><!DOCTYPE svg PUBLIC "-//W3C//DTD SVG 1.1//EN" "http://www.w3.org/Graphics/SVG/1.1/DTD/svg11.dtd"><svg t="1693054124578" class="icon" viewBox="0 0 1024 1024" version="1.1" xmlns="http://www.w3.org/2000/svg" p-id="33226" xmlns:xlink="http://www.w3.org/1999/xlink" width="200" height="200"><path d="M512 100.571429C285.257143 100.571429 100.571429 285.257143 100.571429 512S285.257143 923.428571 512 923.428571 923.428571 738.742857 923.428571 512 738.742857 100.571429 512 100.571429z m213.942857 526.628571c-1.828571 5.485714-7.314286 7.314286-12.8 7.314286-3.657143 0-9.142857-3.657143-84.114286-54.857143-9.142857-5.485714-16.457143-12.8-23.771428-16.457143V603.428571c0 16.457143-12.8 31.085714-31.085714 31.085715H327.314286c-16.457143 0-31.085714-12.8-31.085715-31.085715V420.571429c0-16.457143 12.8-31.085714 31.085715-31.085715h246.857143c16.457143 0 31.085714 12.8 31.085714 31.085715v42.057142c47.542857-31.085714 106.057143-73.142857 107.885714-73.142857h1.828572c1.828571 0 3.657143 0 5.485714 1.828572s5.485714 3.657143 5.485714 5.485714 1.828571 5.485714 1.828572 115.2c0 100.571429 0 111.542857-1.828572 115.2z" fill="#A8A9D4" p-id="33227"></path></svg>