<?xml version="1.0" standalone="no"?><!DOCTYPE svg PUBLIC "-//W3C//DTD SVG 1.1//EN" "http://www.w3.org/Graphics/SVG/1.1/DTD/svg11.dtd"><svg t="1693056627758" class="icon" viewBox="0 0 1397 1024" version="1.1" xmlns="http://www.w3.org/2000/svg" p-id="60956" xmlns:xlink="http://www.w3.org/1999/xlink" width="272.8515625" height="200"><path d="M581.818182 349.090909l-465.454545 0C102.4 349.090909 93.090909 358.4 93.090909 372.363636l0 418.909091c0 13.963636 9.309091 23.272727 23.272727 23.272727l139.636364 0 325.818182 0c13.963636 0 23.272727-9.309091 23.272727-23.272727L605.090909 372.363636C605.090909 358.4 595.781818 349.090909 581.818182 349.090909zM256 768 139.636364 768l0-372.363636 418.909091 0 0 372.363636L256 768z" p-id="60957" fill="#87c38f"></path><path d="M372.363636 861.090909 325.818182 861.090909c-13.963636 0-23.272727 9.309091-23.272727 23.272727s9.309091 23.272727 23.272727 23.272727l46.545455 0c13.963636 0 23.272727-9.309091 23.272727-23.272727S386.327273 861.090909 372.363636 861.090909z" p-id="60958" fill="#87c38f"></path><path d="M1335.854545 395.636364 1303.272727 395.636364 1303.272727 107.054545c0-46.545455-51.2-83.781818-97.745455-83.781818L256 23.272727C214.109091 23.272727 186.181818 55.854545 186.181818 107.054545l0 148.945455L69.818182 256C27.927273 256 0 283.927273 0 325.818182l0 605.090909c0 41.890909 27.927273 69.818182 69.818182 69.818182L558.545455 1000.727273l32.581818 0 37.236364 0 237.381818 0L930.909091 1000.727273c13.963636 0 23.272727-9.309091 23.272727-23.272727s-9.309091-23.272727-23.272727-23.272727l-46.545455 0-27.927273-139.636364L1070.545455 814.545455l0 125.672727c0 32.581818 27.927273 60.509091 60.509091 60.509091l204.8 0c37.236364 0 60.509091-32.581818 60.509091-60.509091L1396.363636 456.145455C1396.363636 418.909091 1363.781818 395.636364 1335.854545 395.636364zM1117.090909 535.272727l232.727273 0 0 325.818182-232.727273 0L1117.090909 535.272727zM1335.854545 442.181818c4.654545 0 13.963636 4.654545 13.963636 13.963636l0 32.581818-232.727273 0L1117.090909 456.145455c0-4.654545 9.309091-13.963636 13.963636-13.963636L1335.854545 442.181818zM232.727273 107.054545c0-18.618182 4.654545-37.236364 23.272727-37.236364l949.527273 0c23.272727 0 51.2 18.618182 51.2 37.236364l0 9.309091L232.727273 116.363636 232.727273 107.054545zM232.727273 162.909091l1024 0 0 232.727273-125.672727 0c-32.581818 0-60.509091 27.927273-60.509091 60.509091l0 172.218182-372.363636 0L698.181818 325.818182c0-41.890909-27.927273-69.818182-69.818182-69.818182L232.727273 256 232.727273 162.909091zM591.127273 954.181818 558.545455 954.181818 69.818182 954.181818C55.854545 954.181818 46.545455 944.872727 46.545455 930.909091L46.545455 325.818182c0-13.963636 9.309091-23.272727 23.272727-23.272727l558.545455 0C642.327273 302.545455 651.636364 311.854545 651.636364 325.818182l0 605.090909c0 13.963636-9.309091 23.272727-23.272727 23.272727L591.127273 954.181818zM837.818182 954.181818l-144.290909 0C698.181818 944.872727 698.181818 940.218182 698.181818 930.909091l0-116.363636 111.709091 0L837.818182 954.181818zM828.509091 768 698.181818 768l0-93.090909 372.363636 0 0 93.090909L828.509091 768zM1349.818182 940.218182c0 4.654545-4.654545 13.963636-13.963636 13.963636l-204.8 0c-4.654545 0-13.963636-9.309091-13.963636-13.963636l0-32.581818 232.727273 0L1349.818182 940.218182z" p-id="60959" fill="#87c38f"></path></svg>