<?xml version="1.0" standalone="no"?><!DOCTYPE svg PUBLIC "-//W3C//DTD SVG 1.1//EN" "http://www.w3.org/Graphics/SVG/1.1/DTD/svg11.dtd"><svg t="1693053026103" class="icon" viewBox="0 0 1024 1024" version="1.1" xmlns="http://www.w3.org/2000/svg" p-id="20245" xmlns:xlink="http://www.w3.org/1999/xlink" width="200" height="200"><path d="M867.7376 350.0032 673.9968 350.0032 673.9968 156.2624c0-35.6352-28.8768-64.6144-64.6144-64.6144L157.2864 91.648c-35.6352 0-64.6144 28.8768-64.6144 64.6144l0 645.9392c0 35.6352 28.8768 64.6144 64.6144 64.6144L544.768 866.816c0 35.6352 28.8768 64.6144 64.6144 64.6144l258.3552 0c35.6352 0 64.6144-28.8768 64.6144-64.6144L932.352 414.6176C932.352 378.88 903.4752 350.0032 867.7376 350.0032L867.7376 350.0032zM367.2064 834.4576c-8.9088 0-16.1792-7.2704-16.1792-16.1792 0-8.9088 7.2704-16.1792 16.1792-16.1792 8.9088 0 16.1792 7.2704 16.1792 16.1792C383.2832 827.1872 376.1152 834.4576 367.2064 834.4576L367.2064 834.4576zM577.1264 414.6176l0 355.2256-419.84 0c-17.8176 0-32.256-14.4384-32.256-32.256L125.0304 156.2624c0-17.8176 14.4384-32.256 32.256-32.256l452.096 0c17.8176 0 32.256 14.4384 32.256 32.256l0 193.7408C606.0032 350.0032 577.1264 378.88 577.1264 414.6176L577.1264 414.6176zM900.096 866.5088c0 17.8176-14.4384 32.6656-32.256 32.6656L641.7408 899.072c-17.8176 0-32.256-17.8176-32.256-35.6352L609.4848 414.6176c0-17.8176 14.4384-32.256 32.256-32.256l226.0992 0c17.8176 0 32.256 14.4384 32.256 32.256L900.096 866.5088 900.096 866.5088zM900.096 866.5088" fill="#f4ea2a" p-id="20246"></path></svg>