<?xml version="1.0" standalone="no"?><!DOCTYPE svg PUBLIC "-//W3C//DTD SVG 1.1//EN" "http://www.w3.org/Graphics/SVG/1.1/DTD/svg11.dtd"><svg t="1693055213012" class="icon" viewBox="0 0 1024 1024" version="1.1" xmlns="http://www.w3.org/2000/svg" p-id="42206" xmlns:xlink="http://www.w3.org/1999/xlink" width="200" height="200"><path d="M652.8 537.6c2.882 0 5.755 0.03 8.62 0.091L704 588.8l63.06-34.399c21.952 6.715 42.742 15.309 62.065 25.535L768 844.8c-85.333-17.067-170.667-25.6-256-25.6-58.586 0-117.172 4.022-175.758 12.067A207.371 207.371 0 0 1 332.8 793.6c0-141.385 143.269-256 320-256z" fill="#FBE7B4" p-id="42207"></path><path d="M502.167 350.206l-185.29 222.312-131.548-71.755c-9.693-5.287-21.084 3.357-18.601 14.115l76.8 332.8c1.556 6.746 8.194 11.031 14.982 9.673C343.021 840.45 427.514 832 512 832c84.486 0 168.979 8.45 253.49 25.351 6.788 1.358 13.426-2.927 14.982-9.673l76.8-332.8 0.316-2.12c0.656-9.73-9.87-16.93-18.917-11.995l-131.573 71.755-185.265-222.312c-5.117-6.141-14.549-6.141-19.666 0z m9.833 28.188l182.167 218.6 1.589 1.599a12.803 12.803 0 0 0 14.373 1.444l115.778-63.18-67.635 293.044 12.238 2.348C684.354 815.017 598.18 806.4 512 806.4l-21.545 0.18c-71.816 1.196-143.627 8.377-215.426 21.54l-9.327 1.78-67.635-293.042 115.804 63.18a12.8 12.8 0 0 0 15.962-3.044l182.167-218.6z" fill="#000000" fill-opacity=".85" p-id="42208"></path><path d="M512 256m-51.2 0a51.2 51.2 0 1 0 102.4 0 51.2 51.2 0 1 0-102.4 0Z" fill="#FDCA5B" p-id="42209"></path><path d="M128 435.2m-51.2 0a51.2 51.2 0 1 0 102.4 0 51.2 51.2 0 1 0-102.4 0Z" fill="#FDCA5B" p-id="42210"></path><path d="M896 435.2m-51.2 0a51.2 51.2 0 1 0 102.4 0 51.2 51.2 0 1 0-102.4 0Z" fill="#FDCA5B" p-id="42211"></path><path d="M512 204.8c28.277 0 51.2 22.923 51.2 51.2 0 28.277-22.923 51.2-51.2 51.2-28.277 0-51.2-22.923-51.2-51.2C460.8 227.723 483.723 204.8 512 204.8z m0 25.6c-14.138 0-25.6 11.462-25.6 25.6 0 14.138 11.462 25.6 25.6 25.6 14.138 0 25.6-11.462 25.6-25.6 0-14.138-11.462-25.6-25.6-25.6zM128 384c28.277 0 51.2 22.923 51.2 51.2 0 28.277-22.923 51.2-51.2 51.2-28.277 0-51.2-22.923-51.2-51.2 0-28.277 22.923-51.2 51.2-51.2z m0 25.6c-14.138 0-25.6 11.462-25.6 25.6 0 14.138 11.462 25.6 25.6 25.6 14.138 0 25.6-11.462 25.6-25.6 0-14.138-11.462-25.6-25.6-25.6zM896 384c28.277 0 51.2 22.923 51.2 51.2 0 28.277-22.923 51.2-51.2 51.2-28.277 0-51.2-22.923-51.2-51.2 0-28.277 22.923-51.2 51.2-51.2z m0 25.6c-14.138 0-25.6 11.462-25.6 25.6 0 14.138 11.462 25.6 25.6 25.6 14.138 0 25.6-11.462 25.6-25.6 0-14.138-11.462-25.6-25.6-25.6z" fill="#000000" fill-opacity=".85" p-id="42212"></path></svg>